<?xml version="1.0" standalone="no"?>
<!DOCTYPE svg PUBLIC "-//W3C//DTD SVG 20010904//EN"
 "http://www.w3.org/TR/2001/REC-SVG-20010904/DTD/svg10.dtd">
<svg version="1.0" xmlns="http://www.w3.org/2000/svg"
 width="225.000000pt" height="225.000000pt" viewBox="0 0 225.000000 225.000000"
 preserveAspectRatio="xMidYMid meet">

<g transform="translate(0.000000,225.000000) scale(0.100000,-0.100000)"
fill="#000000" stroke="none">
<path d="M940 2010 c-8 -5 -40 -15 -70 -21 l-54 -11 39 -19 c21 -10 41 -17 43
-14 3 3 0 5 -6 5 -6 0 -9 7 -6 15 4 8 10 15 16 15 5 0 6 -4 3 -10 -13 -21 12
-9 34 16 24 28 25 39 1 24z m-63 -36 c-3 -3 -12 -4 -19 -1 -8 3 -5 6 6 6 11 1
17 -2 13 -5z"/>
<path d="M855 1790 c3 -5 8 -10 11 -10 2 0 4 5 4 10 0 6 -5 10 -11 10 -5 0 -7
-4 -4 -10z"/>
<path d="M1265 1740 c-3 -5 -1 -10 4 -10 6 0 11 5 11 10 0 6 -2 10 -4 10 -3 0
-8 -4 -11 -10z"/>
<path d="M827 1720 c-3 -13 0 -29 9 -37 12 -13 14 -11 14 9 0 13 -4 29 -9 36
-6 10 -10 8 -14 -8z"/>
<path d="M1648 1703 c7 -3 16 -2 19 1 4 3 -2 6 -13 5 -11 0 -14 -3 -6 -6z"/>
<path d="M816 1671 c-3 -5 -10 -56 -15 -113 -22 -253 38 -500 200 -821 21 -43
39 -79 39 -81 0 -1 -7 -3 -15 -3 -8 0 -12 4 -9 8 2 4 -5 26 -17 49 -12 23 -25
37 -28 31 -4 -6 -7 4 -7 22 0 17 -9 45 -19 61 -18 27 -19 27 -27 7 -4 -12 -10
-21 -12 -21 -3 0 -1 12 4 26 7 16 7 32 0 43 -5 10 -6 22 -2 26 4 5 1 5 -6 0
-8 -4 -11 -16 -8 -28 3 -15 2 -17 -6 -9 -8 8 -8 18 -1 35 12 26 11 27 -54 29
-18 1 -33 5 -33 9 0 4 -12 9 -27 11 -21 2 -29 10 -36 37 -18 73 -27 6 -22
-169 7 -236 13 -288 33 -294 23 -6 199 -24 300 -30 l82 -5 -20 37 c-12 20 -32
52 -45 71 -26 35 -33 57 -15 46 5 -3 -9 38 -32 92 -102 244 -147 411 -155 569
-6 123 -3 139 43 274 5 13 4 13 -6 0 -8 -12 -10 -6 -5 25 4 37 4 38 -5 10 -5
-16 -7 -37 -5 -46 3 -8 -2 -24 -11 -35 -8 -10 -13 -14 -9 -7 3 7 -1 23 -10 37
-9 13 -14 34 -12 47 2 13 2 18 0 12 -10 -28 -21 -11 -16 22 5 34 0 45 -11 26z"/>
<path d="M860 1643 c0 -12 5 -25 10 -28 13 -8 13 15 0 35 -8 12 -10 11 -10 -7z"/>
<path d="M930 1639 c0 -5 5 -7 10 -4 6 3 10 8 10 11 0 2 -4 4 -10 4 -5 0 -10
-5 -10 -11z"/>
<path d="M1165 1338 c-37 -21 -55 -50 -55 -89 0 -31 6 -42 34 -64 36 -27 49
-30 129 -27 48 2 64 19 27 29 -11 3 -20 9 -20 14 0 5 -7 9 -15 9 -8 0 -15 6
-15 14 0 8 -11 24 -24 37 -13 13 -22 29 -19 36 3 7 -5 17 -18 22 -26 9 -24 10
71 24 14 3 3 5 -25 5 -27 1 -59 -4 -70 -10z"/>
<path d="M1616 1143 c-6 -14 -5 -15 5 -6 7 7 10 15 7 18 -3 3 -9 -2 -12 -12z"/>
<path d="M1308 1083 c7 -3 16 -2 19 1 4 3 -2 6 -13 5 -11 0 -14 -3 -6 -6z"/>
<path d="M1248 1073 c7 -3 16 -2 19 1 4 3 -2 6 -13 5 -11 0 -14 -3 -6 -6z"/>
<path d="M1177 1037 c2 -4 -1 -15 -8 -23 -6 -8 -10 -16 -8 -18 2 -2 14 9 25
23 20 25 21 27 4 27 -10 0 -16 -4 -13 -9z"/>
<path d="M825 1010 c-7 -21 0 -40 15 -40 5 0 11 8 13 18 4 16 5 16 6 0 0 -10
5 -18 11 -18 6 0 5 10 -2 26 l-12 25 -13 -23 c-14 -23 -14 -23 -8 5 6 31 -1
37 -10 7z"/>
</g>
</svg>
