<?xml version="1.0" standalone="no"?>
<!DOCTYPE svg PUBLIC "-//W3C//DTD SVG 20010904//EN"
 "http://www.w3.org/TR/2001/REC-SVG-20010904/DTD/svg10.dtd">
<svg version="1.0" xmlns="http://www.w3.org/2000/svg"
 width="180.000000pt" height="180.000000pt" viewBox="0 0 180.000000 180.000000"
 preserveAspectRatio="xMidYMid meet">

<g transform="translate(0.000000,180.000000) scale(0.100000,-0.100000)"
fill="#000000" stroke="none">
<path d="M1085 1610 c-22 -4 -35 -8 -30 -9 6 -1 3 -6 -5 -11 -12 -8 -11 -10 8
-10 12 0 22 5 22 10 0 6 9 10 19 10 11 0 23 5 26 10 3 6 5 9 3 9 -2 -1 -21 -5
-43 -9z"/>
<path d="M1090 1463 c-21 -8 -43 -33 -58 -66 -11 -26 -11 -27 7 -17 11 5 32
10 48 10 21 0 34 9 51 35 12 19 22 37 22 40 0 7 -51 5 -70 -2z"/>
<path d="M826 1260 c7 -28 12 -35 18 -29 2 2 -2 15 -10 29 l-15 25 7 -25z"/>
<path d="M846 1211 c-4 -6 -2 -11 4 -11 6 0 10 -8 9 -17 -1 -10 0 -25 4 -33 3
-8 28 -80 56 -160 28 -80 61 -176 75 -215 l25 -70 -1 165 c0 149 -12 340 -17
265 -1 -23 -3 -27 -11 -15 -9 13 -10 13 -11 0 0 -10 -3 -8 -8 5 -5 11 -13 21
-20 21 -31 4 -34 7 -11 14 24 8 24 8 -7 9 -17 1 -33 7 -36 14 -3 8 -10 6 -21
-8 -12 -15 -15 -16 -10 -3 7 21 -10 55 -20 39z"/>
<path d="M781 684 c0 -11 3 -14 6 -6 3 7 2 16 -1 19 -3 4 -6 -2 -5 -13z"/>
<path d="M747 651 c-3 -12 -18 -22 -38 -26 -29 -7 -31 -9 -14 -15 16 -6 13 -9
-20 -16 -22 -4 -43 -9 -47 -10 -5 -1 -12 -2 -18 -3 -6 0 -10 -33 -10 -73 l0
-73 283 0 283 0 -4 26 c-4 29 -40 43 -81 32 -28 -7 -27 5 2 17 17 7 18 9 5 9
-10 1 -18 6 -18 11 0 6 -20 10 -45 10 -42 0 -103 28 -113 53 -2 4 -14 7 -27 7
-13 0 -31 7 -40 16 -9 9 -25 14 -35 11 -15 -4 -20 0 -20 16 0 20 0 21 -16 1
-15 -19 -15 -18 -11 4 6 27 -9 30 -16 3z"/>
<path d="M1171 474 c0 -11 3 -14 6 -6 3 7 2 16 -1 19 -3 4 -6 -2 -5 -13z"/>
</g>
</svg>
