<?xml version="1.0" standalone="no"?>
<!DOCTYPE svg PUBLIC "-//W3C//DTD SVG 20010904//EN"
 "http://www.w3.org/TR/2001/REC-SVG-20010904/DTD/svg10.dtd">
<svg version="1.0" xmlns="http://www.w3.org/2000/svg"
 width="400.000000pt" height="400.000000pt" viewBox="0 0 400.000000 400.000000"
 preserveAspectRatio="xMidYMid meet">

<g transform="translate(0.000000,400.000000) scale(0.100000,-0.100000)"
fill="#000000" stroke="none">
<path d="M390 3245 c0 -337 1 -357 21 -411 48 -127 137 -181 316 -191 116 -7
103 -15 106 75 l0 37 -96 7 c-129 9 -168 31 -202 111 -12 30 -15 94 -15 382
l0 345 -65 0 -65 0 0 -355z"/>
<path d="M750 3540 l0 -60 115 0 115 0 2 -417 3 -418 63 -3 62 -3 0 421 0 420
120 0 120 0 0 60 0 60 -300 0 -300 0 0 -60z"/>
<path d="M3724 3400 c-64 -41 -72 -141 -15 -192 88 -78 219 -14 208 102 -10
92 -114 141 -193 90z m127 -10 c25 -14 49 -62 49 -101 0 -46 -56 -99 -105 -99
-55 0 -105 52 -105 110 0 58 41 100 100 100 23 0 50 -5 61 -10z"/>
<path d="M3752 3298 c0 -40 3 -58 5 -40 6 42 36 44 58 2 9 -16 20 -30 25 -30
14 0 13 7 -6 35 -14 22 -14 24 5 35 45 23 12 70 -50 70 l-39 0 2 -72z m66 56
c21 -6 30 -28 15 -37 -27 -15 -64 -16 -69 -2 -14 36 7 51 54 39z"/>
<path d="M2410 3345 l0 -55 45 0 45 0 0 55 0 55 -45 0 -45 0 0 -55z"/>
<path d="M1385 3204 c-85 -31 -129 -108 -106 -184 16 -55 63 -83 190 -115 58
-14 115 -32 128 -40 47 -31 39 -106 -14 -126 -35 -13 -130 -13 -164 0 -29 10
-69 56 -69 77 0 10 -14 14 -45 14 -36 0 -45 -3 -45 -17 1 -27 34 -96 57 -115
59 -53 221 -65 310 -23 65 30 93 71 93 138 0 57 -21 97 -62 122 -16 9 -79 30
-141 46 -120 32 -147 48 -147 89 0 40 32 63 94 68 67 5 119 -17 136 -59 11
-26 17 -29 57 -29 42 0 45 2 39 23 -3 12 -6 27 -6 34 0 7 -14 28 -31 48 -52
59 -182 83 -274 49z"/>
<path d="M1988 3205 c-26 -8 -56 -26 -66 -40 -26 -33 -33 -31 -30 8 3 31 2 32
-39 35 l-43 3 0 -380 0 -381 40 0 40 0 1 103 c1 56 1 117 1 135 0 36 9 40 29
15 39 -47 156 -67 243 -41 55 17 117 80 139 143 21 63 23 185 2 246 -44 130
-183 197 -317 154z m135 -79 c90 -38 129 -158 92 -282 -24 -81 -75 -117 -163
-116 -114 3 -186 130 -152 271 27 112 126 169 223 127z"/>
<path d="M2759 3203 c-86 -33 -130 -86 -155 -184 -31 -122 -3 -242 73 -310 55
-49 99 -62 194 -57 66 4 83 9 116 33 58 44 80 78 97 148 6 26 5 27 -36 27 -42
0 -44 -2 -65 -47 -27 -59 -66 -84 -133 -85 -65 0 -107 25 -138 82 -21 40 -23
55 -20 131 6 129 49 187 146 197 67 6 116 -18 139 -69 17 -36 21 -39 62 -39
l44 0 -6 36 c-8 48 -49 99 -98 125 -58 29 -161 35 -220 12z"/>
<path d="M3342 3205 c-130 -40 -201 -178 -173 -334 26 -145 114 -221 255 -221
47 0 85 7 112 19 47 21 96 77 112 126 l10 35 -41 0 c-36 -1 -45 -5 -62 -32
-33 -52 -67 -71 -128 -71 -93 0 -155 51 -164 137 l-6 46 208 0 207 0 -7 53
c-27 194 -159 293 -323 242z m156 -92 c36 -27 61 -63 68 -99 l6 -31 -151 -2
c-135 -2 -152 0 -158 15 -10 27 37 105 77 126 44 24 120 20 158 -9z"/>
<path d="M2412 2918 l3 -273 43 -3 42 -3 0 275 0 276 -45 0 -45 0 2 -272z"/>
<path d="M1605 2244 c-76 -18 -198 -80 -274 -138 -209 -161 -383 -454 -485
-818 -22 -77 -131 -293 -205 -402 -161 -241 -344 -397 -544 -462 l-72 -23
1040 0 1040 -1 65 121 c36 66 66 124 68 129 2 5 -113 10 -255 12 l-258 4 -84
32 c-106 40 -164 78 -233 150 -96 100 -133 201 -131 357 1 109 24 205 94 392
107 288 219 507 313 610 l48 53 -33 -1 c-19 0 -61 -7 -94 -15z"/>
<path d="M1827 2138 l-66 -123 242 -6 c270 -7 298 -12 435 -79 156 -77 250
-200 278 -365 23 -128 1 -261 -78 -475 -126 -339 -271 -611 -360 -673 -31 -22
-11 -22 89 -1 336 69 610 391 769 903 40 128 138 335 211 444 161 243 347 404
538 469 l80 28 -1036 0 -1036 0 -66 -122z"/>
</g>
</svg>
